<svg width="256" height="256" viewBox="0 0 256 256" fill="none" xmlns="http://www.w3.org/2000/svg">
<rect width="256" height="256" rx="64" fill="white"/>
<path d="M121.416 224C118.654 224 116.416 221.761 116.416 219V208.622C116.416 206.086 114.515 203.964 112.01 203.567C96.878 201.169 82.6282 195.674 70.6357 187.582C68.5285 186.16 67.9691 183.339 69.2524 181.145L80.0048 162.759C81.4832 160.231 84.8028 159.522 87.2854 161.076C100.541 169.369 114.215 173.36 128.932 173.36C144.037 173.36 152.668 168.62 152.668 160.215C152.668 152.242 144.684 147.286 122.026 141.037C88.7947 132.202 73.0421 118.195 73.0421 93.8451C73.0421 72.4293 87.1544 56.6119 112.085 51.8745C114.549 51.4065 116.416 49.3051 116.416 46.7978V37C116.416 34.2386 118.654 32 121.416 32H138.605C141.367 32 143.605 34.2386 143.605 37V47.09C143.605 49.5641 145.418 51.6521 147.845 52.1309C160.336 54.5947 171.923 59.4856 182.044 66.0157C184.25 67.4392 184.837 70.3691 183.466 72.6081L172.837 89.9629C171.285 92.4972 167.881 93.1159 165.35 91.5588C155.255 85.3486 141.884 81.3468 129.795 81.3468C117.495 81.3468 109.726 85.8721 109.726 93.1986C109.726 100.525 115.984 105.051 138.426 111.515C173.6 121.212 190 135.65 190 159.569C190 182.063 173.871 198.347 147.882 203.45C145.442 203.929 143.605 206.021 143.605 208.508V219C143.605 221.761 141.367 224 138.605 224H121.416Z" fill="#0C0C0D"/>
</svg>
